<?xml version="1.0" encoding="UTF-8"?>
<svg id="Layer_1" data-name="Layer 1" xmlns="http://www.w3.org/2000/svg" viewBox="0 0 1660.08 422.14">
  <g>
    <path d="M72.49,5.04l269.86-.28c40.34,2.78,71.45,31.59,75.15,72.18l.05,273.03c-2.58,36.91-31.84,67.3-68.33,72.12l-280.99.05c-35.53-4.65-63.76-33.92-68.23-69.28L.1,73.11C6.18,35.93,34.64,8.23,72.49,5.04ZM239.06,118.03c2.14-2.14,7.43-5.2,10.4-5.81,30.94-6.35,39.31,37.42,9.93,44.29l-175.4.45c-15.42,2.43-15.08,21.12.94,22.62h172.98c31.28-2.96,51.46-33.94,38.95-63.55-11.31-26.76-46.51-35.83-69.41-17.97-8.4,6.55-25.01,27.8-9.62,35.1,13.52,6.41,15.13-9,21.25-15.13h-.02ZM82.25,202.36c-12.58,2.1-12.39,19.7-.17,22.29l211.19.02c43.21,3.02,36.4,59.11-1.05,57.05-7.61-.42-17.25-6.68-21.28-13.12-5.37-8.56-2.13-20.59-15.07-21.34-15.04-.88-11.78,17.38-7.81,26.54,13.05,30.19,52.62,40.52,78.56,19.63,37.45-30.15,16.99-89.48-30.39-91.35l-213.97.28h-.01ZM82.24,247.53c-11.26,3.51-13.18,17.15-1.98,22.15l96.06.22c27.36,2.71,28.96,40.77,2.51,45.7-7.57,1.41-17.15-2.78-21.5-9.05-1.94-2.79-2.85-7.06-5.06-9.67-6.82-8-22-2.57-20.45,8.59,2.53,18.22,28.01,34.05,45.52,33.19,56-2.73,58.91-86.71,0-91.4-30.46-2.43-64.3,1.7-95.1.26h0Z" style="fill: #33abc1;"/>
    <path d="M82.25,202.36l213.97-.28c47.38,1.87,67.84,61.2,30.39,91.35-25.94,20.88-65.51,10.56-78.56-19.63-3.96-9.17-7.23-27.42,7.81-26.54,12.94.76,9.7,12.78,15.07,21.34,4.03,6.43,13.68,12.7,21.28,13.12,37.45,2.06,44.26-54.03,1.05-57.05l-211.19-.02c-12.22-2.59-12.41-20.19.17-22.29h.01Z" style="fill: #c2f3fe;"/>
    <path d="M239.06,118.03c-6.12,6.13-7.73,21.54-21.25,15.13-15.39-7.3,1.22-28.55,9.62-35.1,22.9-17.87,58.1-8.79,69.41,17.97,12.52,29.61-7.66,60.59-38.95,63.55H84.92c-16.02-1.5-16.36-20.19-.94-22.62l175.4-.45c29.39-6.87,21.01-50.64-9.93-44.29-2.97.61-8.26,3.67-10.4,5.81h0Z" style="fill: #c2f3fe;"/>
    <path d="M82.24,247.53c30.8,1.44,64.65-2.69,95.1-.26,58.91,4.69,56,88.67,0,91.4-17.52.85-42.99-14.97-45.52-33.19-1.55-11.16,13.63-16.59,20.45-8.59,2.22,2.6,3.13,6.87,5.06,9.67,4.35,6.27,13.92,10.46,21.5,9.05,26.44-4.93,24.85-42.98-2.51-45.7l-96.06-.22c-11.2-5.01-9.27-18.64,1.98-22.15h0Z" style="fill: #c1f3fe;"/>
  </g>
  <g>
    <path d="M1201.14,197.34c28.62-33.34,84.93-27.24,109.53,7.85,17.25-33.21,68.02-38.95,95.79-16.21,19.44,15.92,24.9,42.01,27.49,65.81,2.08,19.11.84,59.78,8.32,75.16,2.43,5.01,6.56,9.06,8.63,14.27,1.22,3.06,1.26,7.9-1.1,10.47-3.17,3.45-11.4,1.62-15.54,1.62-15.1-.02-30.2-.05-45.3-.07-4.88,0-9.76-.01-14.65-.02-4,0-8.98,1.39-12.1-1.7-2.89-2.86-2.89-7.01-1.48-10.53,3.29-8.24,11.37-14.12,12.31-23.41,1.93-18.98-4.51-43.24-2.95-62.83-2.83-19.01-.22-59.99-29.02-57.5-13.63,1.18-19.4,17.26-20.12,28.98-.51,8.33,1.09,16.89.89,25.32-.18,7.44-.4,14.88-.53,22.32-.26,14.51-.81,29.47,1.44,43.85.42,2.67.92,5.41,1.98,7.92,3.52,8.34,18.33,19.42,6.35,27.58-1.78.94-3.67,1.06-5.63,1.24-17.56,1.64-54.23,1.63-71.79,0-11.22-1.04-11.95-7.52-7.51-16.42,4.74-9.5,9.82-11.79,10.97-24.39,1.8-19.61,1.03-50.64.06-70.73-.43-8.76-1.53-20.71-4.48-28.91-10.57-29.32-43.25-19.09-45.7,12.22-2.26,28.99,1.67,60.97.14,90.27-.14,11.55,16.08,19.62,16.27,29.74.11,5.91-4.98,7.75-9.96,8.22-15.07,1.4-60.53,1.37-68,1.51-3.21.06-6.44-.24-9.58-.95-1.68-.38-3.34-.89-4.95-1.52-.83-.32-1.64-.68-2.43-1.07-.69-.34-1.46-.61-2.02-1.15s-.84-1.37-1.03-2.12c-.42-1.71-.35-3.56.04-5.27.47-2.06,1.48-3.95,2.67-5.68,2.62-3.83,6.06-7.02,8.84-10.73,1.99-2.66,3.67-5.65,4.13-8.98,3.35-24.61-2.35-56.1.11-81.45-1.57-12.85-19.18-17.2-19.35-27.64-.12-6.93,9.82-10.31,15.05-12.95,17.61-8.89,36.34-15.92,54.13-24.48,11.57.51,10.13,13.92,10.09,22.38v-.02Z" style="fill: #4a4a4a;"/>
    <path d="M796.38,191.44c23.35-20.76,64.55-21.58,88.43-1.48,36.06,30.35,24.84,85.99,31.53,127.57.53,3.3,1.66,6.71,2.99,9.78,3.61,8.36,18.98,23.18,4.33,29.16l-82.07-.56c-12.48-11.84,9.93-23.24,9.81-36.31-2.54-28.32-1.33-58.23-5.04-86.3-1.48-11.15-5.01-29.28-17.74-32.35-23.22-5.61-30.11,14.49-31.3,33.17-1.42,22.24-1.88,59.54.17,81.42.35,3.76,1.29,8.32,3,11.73,4.19,8.35,21.39,18.55,10.37,28.4l-90.17.3-3.39-2.5c-4.58-14.69,14.27-19.93,15.23-33.88l-1.19-182.45c-4.33-11.91-29.54-18.91-9.32-33.3l64.53-27.88c5.8-1.51,9.84,4.87,9.84,9.91v105.57h-.01Z" style="fill: #4a4a4a;"/>
    <path d="M1582.29,341.7l-9.3,8.86c-23.2,16.09-69.75,12.11-90.91-6.4-23.29-20.37-22.35-61.48,1.51-81.01,22.94-18.78,59.99-20.1,85.94-6.9-2.29-12.7-2.44-25.86-5.2-38.49-2.19-10-5.46-22.12-17.13-24.12-28.73-4.92-19.91,45.33-48.02,48.76-33.33,4.06-39.43-32.24-16.57-50.93,27.33-22.36,87.86-20.29,116.33-.45,45.87,31.98,31.56,86.14,43.78,132.02,1.03,3.87,2.72,8.28,5.42,11.28,4.63,5.14,14.43,6.17,11.36,15.29-.76,2.25-4.29,4.39-6.45,5.34-12.03,5.28-44.35,5.87-56.66,1.64-7.42-2.55-12.16-7.2-14.09-14.89h-.01ZM1547.67,267.29c-21.96,3.5-16.79,40.53-11.58,55.29,4.48,12.67,17.05,26.99,30.54,14.74,10.66-9.69,8.73-28.39,6.7-41.16-2.1-13.23-8.87-31.55-25.66-28.87Z" style="fill: #4a4a4a;"/>
    <path d="M1017.56,289.79c-1.99,3.42,10.37,14.36,13.3,16.38,17.59,12.13,42.4,10.4,59.19-2.37,4.88-3.71,7.37-10.31,14.88-7.83,11.32,3.73-2.54,28.54-6.95,34.41-36.87,49.09-120.68,35.88-146.22-18.78-36.04-77.15,30.71-157.72,113.04-131.65,14.23,4.51,27.92,14.57,35.15,27.8,5.8,10.62,6.84,28.19-3.24,36.7-3.79,3.2-9.1,5.35-13.43,7.82l-15.86,9.06c-16.62,9.49-33.23,18.98-49.85,28.47h-.01ZM1024.05,193.64c-22.5,3.2-23.2,38.27-21.35,55.24.31,2.87,3.17,21.95,5.38,22.08,15.47-11.99,44.81-17.71,43.72-41.69-.67-14.75-9.37-38.25-27.75-35.64h0Z" style="fill: #4a4a4a;"/>
    <path d="M623.48,210.1c2.25-3.39,4.5-6.78,6.76-10.17,2.91-4.38,5.34-9.28,9.3-12.84,11.26-10.13,30.01-14.2,44.55-10.47,7.05,1.81,13.42,5.7,17.96,11.42,10.81,13.61,10.78,44.1-4.56,54.31-7.36,4.9-21.58,5.87-29.48,2.3-14.22-6.43-10.79-26.24-18.28-30.92-10.74-6.7-16.42,6.17-18.12,14.81-3.34,16.93-3.06,70.94-1.24,89.08,1.75,17.39,19.89,18.09,19.43,34.18l-3.19,3.69-90,.5c-11.96-9.7,4.12-19.68,8.09-28.36,1.27-2.78,2.46-6.97,2.76-10.01,1.82-18.37,1.64-56.11.04-74.66-.46-5.33-1.96-9.29-5.12-13.54-5.54-7.47-15.9-9.22-12.16-21.34.94-3.05,5.63-5.85,8.36-7.35,17.59-9.67,37.42-16.1,55.28-25.34,3.5-2.21,9.6,2.61,9.6,5.74v28.97h.02Z" style="fill: #4a4a4a;"/>
    <path d="M970.97,103.27h111.57l3.67,2.22c1.06,1.14,1.64,2.47,1.88,4.01.67,4.28.72,24.26-.15,28.21s-4.48,5.32-8.14,5.61l-107.86-.21c-5-1.67-6.18-5.24-6.63-10.07-.6-6.46-1.88-28.03,5.65-29.78h.01Z" style="fill: #4a4a4a;"/>
    <path d="M1052.55.16c9.38-1.38,13.16,6.17,16.8,13.18,2.6,5.02,6.01,12.17,8.17,17.37,5.02,12.09,6.08,18.91-8.02,23.74-23.6,8.1-50.58,11.77-74.41,19.89-7.2,1.08-14.78.16-17.73-7.33-.72-4.6-.65-9.02,3.19-12.11,21.67-14.82,41.96-36.03,63.49-50.44,2.55-1.71,5.39-3.84,8.52-4.3h-.01Z" style="fill: #4a4a4a;"/>
  </g>
</svg>